:SAMPLES-PER-SECOND 30
:FULLY-SPECIFIED
:DEGREES
551
root  4.45279 39.2594 -4.5028 -27.5321 -86.7224 23.5908
RightUpLeg  -0.687271 -9.1261 -1.59203
RightLeg  18.2675 3.05126 1.21181
RightFoot  -12.9318 -0.141163 -3.86629
RightToes  -2.9104e-010 0 -3.6325e-017
Spine  5.60809 -0.425884 7.67944
Spine1  3.1865 0.776812 -1.94849
HEad  -6.21431 -2.23099 -2.03465
LeftShoulder1  -0.719982 5.36412 -32.5381
LeftArm  -5.52032 8.28398 -37.2442
LeftForeArm  26.7973 -11.4915 -6.71868
LeftHand  -0.0431935 7.64553 -0.0769026
RightShoulder  -1.278 -6.9303 30.796
RightArm  0.941078 -19.979 36.7055
RightForeArm  0.508981 8.70704 1.63553
RightHand  -0.459788 7.5503 -4.48236
LeftUpLeg  -15.9698 5.05349 1.28263
LeftLeg  37.5088 -0.844513 -0.339801
LeftFoot  -2.99257 0.236978 -3.0033
LeftToes  -3.37426e-010 -1.91496e-010 5.23909e-011
552
root  3.42411 39.3179 -4.53075 -36.9732 -87.3904 33.1512
RightUpLeg  1.81225 -8.94432 -1.83069
RightLeg  16.3814 3.70918 1.19534
RightFoot  -13.4893 -0.16404 -3.89813
RightToes  -2.9104e-010 0 -3.6325e-017
Spine  5.13212 -0.0134075 7.4295
Spine1  3.64714 1.10446 -2.44241
HEad  -6.80874 -2.57435 -2.319
LeftShoulder1  -0.591588 5.03655 -32.449
LeftArm  -7.63456 9.11342 -38.8721
LeftForeArm  29.3524 -9.22676 -6.64549
LeftHand  -0.0510221 8.03079 -0.16084
RightShoulder  -1.28066 -6.91318 31.0585
RightArm  2.40847 -15.7195 37.651
RightForeArm  1.93577 8.5491 2.39968
RightHand  -0.435748 7.88672 -4.17171
LeftUpLeg  -16.189 5.38856 0.881315
LeftLeg  28.0487 -0.865043 -0.128081
LeftFoot  -2.80219 0.301233 -3.80503
LeftToes  -3.37426e-010 -1.91496e-010 5.23909e-011
553
root  2.40505 39.3413 -4.54911 -48.5776 -87.8374 45.1303
RightUpLeg  3.96642 -8.81326 -2.06409
RightLeg  14.5709 4.30533 1.17509
RightFoot  -14.0911 -0.182307 -3.62066
RightToes  -2.9104e-010 0 -3.6325e-017
Spine  4.84861 0.252314 6.68444
Spine1  3.46047 1.15299 -2.37001
HEad  -7.07936 -2.37994 -2.2276
LeftShoulder1  -0.599552 5.03766 -32.9368
LeftArm  -8.01152 9.62425 -39.5274
LeftForeArm  30.7127 -7.27705 -6.67006
LeftHand  -0.102945 9.70883 -1.35251
RightShoulder  -1.2378 -6.81036 30.9243
RightArm  3.86639 -11.1208 38.8085
RightForeArm  2.61556 8.44355 3.19416
RightHand  -0.485112 7.74653 -4.64462
LeftUpLeg  -16.1247 5.40786 0.543316
LeftLeg  17.6118 -0.916678 -0.135844
LeftFoot  -2.06612 0.341143 -4.06221
LeftToes  -3.37426e-010 -1.91496e-010 5.23909e-011
554
root  1.35181 39.3613 -4.53619 -67.6978 -88.2545 64.5093
RightUpLeg  6.47903 -8.75395 -2.47305
RightLeg  12.3778 5.07357 1.19407
RightFoot  -14.5439 -0.19057 -3.3075
RightToes  -2.9104e-010 0 -3.6325e-017
Spine  4.18535 0.562084 6.17529
Spine1  3.91132 1.42321 -2.86291
HEad  -7.16235 -2.70096 -2.16556
LeftShoulder1  -0.574186 4.96678 -33.0923
LeftArm  -8.15263 10.2021 -40.2565
LeftForeArm  32.6571 -5.87856 -6.48896
LeftHand  -0.0791358 7.53489 -1.9284
RightShoulder  -1.18541 -6.683 30.768
RightArm  5.10086 -6.64462 40.0225
RightForeArm  3.33281 8.97593 3.87539
RightHand  -0.497914 7.64184 -4.79243
LeftUpLeg  -15.438 4.46541 0.490949
LeftLeg  6.85631 0.990275 -0.186772
LeftFoot  -0.652022 0.351224 -3.70935
LeftToes  -3.37426e-010 -1.91496e-010 5.23909e-011
555
root  0.251784 39.263 -4.51269 -76.7334 -88.6569 73.7445
RightUpLeg  8.80651 -8.62248 -2.4836
RightLeg  10.9452 5.43203 1.17321
RightFoot  -15.5285 -0.206847 -2.77934
RightToes  -2.9104e-010 0 -3.6325e-017
Spine  3.4672 0.735162 5.7916
Spine1  4.42868 1.54986 -3.01619
HEad  -7.69655 -2.37337 -2.20732
LeftShoulder1  -0.533526 4.87189 -32.8514
LeftArm  -8.55108 11.0454 -41.0508
LeftForeArm  33.9936 -5.35369 -6.23248
LeftHand  -0.0893076 7.16983 -2.94156
RightShoulder  -1.14241 -6.59282 30.4576
RightArm  6.5409 -2.65555 41.4073
RightForeArm  3.41308 10.7675 4.46794
RightHand  -0.524569 7.77003 -4.98088
LeftUpLeg  -15.1499 3.10098 0.964009
LeftLeg  -1.49957 3.67341 -0.729862
LeftFoot  0.501027 0.439704 -4.2852
LeftToes  -3.37426e-010 -1.91496e-010 5.23909e-011
556
root  -0.925541 39.0433 -4.44395 -85.5769 -89.0638 82.2365
RightUpLeg  11.2535 -8.61441 -2.6019
RightLeg  10.8823 5.88812 1.1259
RightFoot  -17.1314 -0.227668 -2.23234
RightToes  -2.9104e-010 0 -3.6325e-017
Spine  3.13845 0.963128 5.64676
Spine1  5.06361 1.79293 -3.05624
HEad  -8.11628 -3.1133 -1.58044
LeftShoulder1  -0.496164 4.77464 -32.8972
LeftArm  -8.72649 11.2759 -41.3749
LeftForeArm  34.6086 -5.09196 -6.14828
LeftHand  -0.136513 8.48247 -3.17272
RightShoulder  -1.11096 -6.5461 29.9935
RightArm  7.87464 0.547864 43.0579
RightForeArm  2.0556 14.0684 4.56807
RightHand  -0.633718 9.11778 -5.44932
LeftUpLeg  -15.1481 3.43595 0.989711
LeftLeg  -5.22346 6.50361 -1.39941
LeftFoot  -0.0764669 0.628984 -6.29878
LeftToes  -3.37426e-010 -1.91496e-010 5.23909e-011
557
root  -2.13183 38.7741 -4.33556 -66.1252 -89.1291 62.5822
RightUpLeg  13.3845 -8.7462 -3.00926
RightLeg  11.4058 6.07883 1.16055
RightFoot  -19.0117 -0.209233 -1.19537
RightToes  -2.9104e-010 0 -3.6325e-017
Spine  2.75552 0.999523 5.5385
Spine1  5.58239 1.9411 -3.50163
HEad  -8.58891 -3.4963 -1.0964
LeftShoulder1  -0.471452 4.70617 -33.062
LeftArm  -8.40359 10.9871 -40.9418
LeftForeArm  34.7699 -4.87007 -6.3006
LeftHand  -0.0956145 7.58897 -2.66793
RightShoulder  -1.07479 -6.47186 29.6641
RightArm  8.4686 2.94458 44.7452
RightForeArm  0.314606 19.3889 4.60845
RightHand  -0.722019 8.50871 -6.3954
LeftUpLeg  -16.3215 3.03507 0.374652
LeftLeg  -3.3891 8.49622 -1.33488
LeftFoot  0.919246 0.51809 -5.14495
LeftToes  -3.37426e-010 -1.91496e-010 5.23909e-011
558
root  -3.37933 38.5558 -4.18545 -63.5822 -88.6988 59.26
RightUpLeg  16.067 -8.9148 -4.1714
RightLeg  12.1864 6.48114 1.13363
RightFoot  -20.3063 -0.12438 0.158798
RightToes  -2.9104e-010 0 -3.6325e-017
Spine  3.28938 1.16616 4.96693
Spine1  5.78947 2.33169 -4.06196
HEad  -8.92217 -3.97681 -0.734917
LeftShoulder1  -0.481882 4.72566 -33.2875
LeftArm  -7.81246 10.0921 -40.1979
LeftForeArm  34.1721 -4.44169 -6.59128
LeftHand  -0.0945555 7.64464 -2.6009
RightShoulder  -0.962249 -6.21832 28.8958
RightArm  6.2885 4.20996 46.2211
RightForeArm  -0.64394 27.652 5.94191
RightHand  -0.976702 8.38575 -8.58528
LeftUpLeg  -17.712 2.52982 -0.922935
LeftLeg  2.4248 7.44672 -0.694121
LeftFoot  6.49631 -0.280354 1.48702
LeftToes  -3.37426e-010 -1.91496e-010 5.23909e-011
